<svg width="242" height="49" fill="none" xmlns="http://www.w3.org/2000/svg"><g clip-path="url(#a)"><path d="M57.007 35.61V10.935h11.375c2.707 0 4.795.571 6.265 1.715 1.47 1.143 2.205 2.706 2.205 4.69 0 1.47-.443 2.718-1.33 3.745-.863 1.026-2.053 1.715-3.57 2.065v-.56c1.773.303 3.139.98 4.095 2.03.98 1.026 1.47 2.368 1.47 4.025 0 2.193-.781 3.908-2.345 5.145-1.54 1.213-3.675 1.82-6.405 1.82h-11.76Zm5.215-4.06h5.88c1.353 0 2.392-.257 3.115-.77.724-.514 1.085-1.33 1.085-2.45 0-1.144-.362-1.96-1.085-2.45-.723-.514-1.761-.77-3.115-.77h-5.88v6.44Zm0-10.465h5.18c1.424 0 2.474-.257 3.15-.77.677-.514 1.015-1.284 1.015-2.31 0-1.004-.338-1.762-1.015-2.275-.677-.514-1.727-.77-3.15-.77h-5.18v6.125ZM81.027 35.61V9.85h5.285v25.76h-5.285Zm16.045.385c-2.217 0-3.862-.607-4.935-1.82-1.073-1.237-1.61-3.104-1.61-5.6v-10.71h5.285v10.71c0 1.12.222 1.948.665 2.485.466.536 1.178.805 2.135.805 1.05 0 1.913-.362 2.59-1.085.7-.747 1.05-1.739 1.05-2.975v-9.94h5.285V35.61h-5.145v-3.395h.49c-.537 1.19-1.307 2.123-2.31 2.8-.98.653-2.147.98-3.5.98Zm23.745 0c-3.08 0-5.484-.829-7.21-2.485-1.727-1.657-2.59-3.909-2.59-6.755 0-1.844.361-3.454 1.085-4.83.746-1.377 1.773-2.45 3.08-3.22 1.33-.794 2.881-1.19 4.655-1.19 1.75 0 3.208.373 4.375 1.12 1.19.746 2.076 1.796 2.66 3.15.606 1.33.91 2.881.91 4.655v1.225h-12.425V25.04h8.575l-.595.49c0-1.47-.304-2.579-.91-3.325-.584-.77-1.435-1.155-2.555-1.155-1.237 0-2.194.455-2.87 1.365-.654.91-.98 2.216-.98 3.92v.56c0 1.726.42 3.01 1.26 3.85.863.84 2.1 1.26 3.71 1.26.956 0 1.855-.117 2.695-.35a8.508 8.508 0 0 0 2.45-1.19l1.47 3.5c-.887.653-1.914 1.155-3.08 1.505-1.144.35-2.38.525-3.71.525Zm22.603 0c-2.637 0-4.9-.525-6.79-1.575a10.9 10.9 0 0 1-4.375-4.41c-1.004-1.914-1.505-4.165-1.505-6.755s.501-4.83 1.505-6.72a10.9 10.9 0 0 1 4.375-4.41c1.89-1.05 4.153-1.575 6.79-1.575 1.703 0 3.255.245 4.655.735 1.4.466 2.59 1.155 3.57 2.065l-1.715 4.305c-1.074-.84-2.1-1.435-3.08-1.785-.957-.35-2.042-.525-3.255-.525-2.31 0-4.084.688-5.32 2.065-1.214 1.353-1.82 3.301-1.82 5.845 0 2.543.606 4.503 1.82 5.88 1.236 1.376 3.01 2.065 5.32 2.065 1.213 0 2.298-.175 3.255-.525.98-.35 2.006-.945 3.08-1.785l1.715 4.305c-.98.886-2.17 1.575-3.57 2.065s-2.952.735-4.655.735Zm18.844 0c-1.89 0-3.535-.374-4.935-1.12a8.222 8.222 0 0 1-3.22-3.22c-.746-1.377-1.12-3.022-1.12-4.935 0-1.89.374-3.524 1.12-4.9a7.987 7.987 0 0 1 3.22-3.185c1.4-.747 3.045-1.12 4.935-1.12 1.89 0 3.535.373 4.935 1.12a7.702 7.702 0 0 1 3.22 3.185c.77 1.376 1.155 3.01 1.155 4.9 0 1.913-.385 3.558-1.155 4.935-.746 1.376-1.82 2.45-3.22 3.22-1.4.746-3.045 1.12-4.935 1.12Zm0-3.99c1.214 0 2.17-.432 2.87-1.295.724-.864 1.085-2.194 1.085-3.99 0-1.797-.361-3.115-1.085-3.955-.7-.84-1.656-1.26-2.87-1.26-1.213 0-2.181.42-2.905 1.26-.7.84-1.05 2.158-1.05 3.955 0 1.796.35 3.126 1.05 3.99.724.863 1.692 1.295 2.905 1.295Zm38.827 3.99c-1.54 0-2.893-.374-4.06-1.12-1.166-.747-2.076-1.809-2.73-3.185-.653-1.377-.98-3.034-.98-4.97 0-1.914.327-3.559.98-4.935.654-1.377 1.564-2.427 2.73-3.15 1.167-.747 2.52-1.12 4.06-1.12 1.424 0 2.695.35 3.815 1.05 1.144.676 1.89 1.598 2.24 2.765h-.385l.42-3.465h5.075c-.07.77-.14 1.551-.21 2.345a38.15 38.15 0 0 0-.07 2.275V35.61h-5.25l-.035-3.325h.42c-.373 1.12-1.12 2.018-2.24 2.695-1.12.676-2.38 1.015-3.78 1.015Zm1.61-3.99c1.214 0 2.194-.432 2.94-1.295.747-.864 1.12-2.194 1.12-3.99 0-1.797-.373-3.115-1.12-3.955-.746-.84-1.726-1.26-2.94-1.26-1.213 0-2.193.42-2.94 1.26-.746.84-1.12 2.158-1.12 3.955 0 1.796.362 3.126 1.085 3.99.747.863 1.739 1.295 2.975 1.295Zm13.575 3.605V22.555c0-.77-.024-1.552-.07-2.345a26.141 26.141 0 0 0-.175-2.345h5.075l.595 5.18h-.805c.233-1.26.606-2.299 1.12-3.115.536-.817 1.19-1.424 1.96-1.82.793-.397 1.691-.595 2.695-.595.443 0 .793.023 1.05.07.256.023.513.081.77.175l-.035 4.655c-.49-.21-.91-.339-1.26-.385-.327-.07-.747-.105-1.26-.105-.98 0-1.797.186-2.45.56-.63.373-1.109.921-1.435 1.645-.304.723-.455 1.598-.455 2.625v8.855h-5.32Z" fill="#fff"/><path d="M174.987 35.61V9.85h5.285v25.76h-5.285Zm9.605 0V9.85h5.285v25.76h-5.285Z" fill="#FFB342"/><path d="M39.064 29.707H44V25.61H29.733c-.26 4.252-3.83 7.626-8.195 7.626s-7.935-3.373-8.195-7.626H0v4.098h4.074c.218.843.503 1.67.846 2.48.39.915.851 1.788 1.386 2.615L2.74 38.33l5.616 5.556 3.57-3.533a18.064 18.064 0 0 0 5.756 2.342v4.914h7.95v-4.955a18.454 18.454 0 0 0 2.97-.95 17.645 17.645 0 0 0 2.781-1.459l3.509 3.472 5.62-5.562-3.565-3.528a17.56 17.56 0 0 0 1.271-2.44c.343-.81.628-1.637.846-2.48Z" fill="#fff"/><path d="M36.944 7.78v8.275c0 .561-.464 1.017-1.036 1.017h-.734a1.027 1.027 0 0 1-1.036-1.017V5.629a22.036 22.036 0 0 0-7.067-3.02v14.357c0 .562-.464 1.017-1.036 1.017h-8.092a1.027 1.027 0 0 1-1.036-1.017V2.61a22.414 22.414 0 0 0-7.035 3.02v10.426c0 .561-.463 1.017-1.035 1.017h-.734a1.027 1.027 0 0 1-1.036-1.017V7.78C2.73 11.72 0 17.347 0 23.61h44c.01-6.262-2.708-11.889-7.056-15.83Z" fill="#FFB342"/><path d="M25 15.253c0 .473-.347.856-.784.856h-4.432c-.426 0-.784-.383-.784-.856V.966c0-.474.347-.857.784-.857h4.432c.426 0 .784.383.784.857v14.287Z" fill="#FFB342"/></g><defs><clipPath id="a"><path fill="#fff" transform="translate(0 .11)" d="M0 0h242v48H0z"/></clipPath></defs></svg>