<svg width="30" height="29" fill="none" xmlns="http://www.w3.org/2000/svg"><g clip-path="url(#a)"><path d="M30 14.073a.736.736 0 0 0-.206-.47.77.77 0 0 0-.469-.23l-1.849-.292a.394.394 0 0 1-.218-.111.378.378 0 0 1-.107-.217 9.928 9.928 0 0 0-.122-.67.38.38 0 0 1 .19-.412l1.642-.89a.735.735 0 0 0 .357-.385.712.712 0 0 0 .004-.518l-.285-.767a.732.732 0 0 0-.348-.393.76.76 0 0 0-.527-.066l-1.842.352a.406.406 0 0 1-.243-.032.394.394 0 0 1-.177-.165 12.537 12.537 0 0 0-.346-.593.387.387 0 0 1 .032-.458l1.226-1.382a.724.724 0 0 0 .028-.968l-.535-.627a.753.753 0 0 0-.98-.14l-1.613.944a.396.396 0 0 1-.46-.044c-.179-.153-.361-.3-.532-.436a.375.375 0 0 1-.124-.437l.667-1.717a.712.712 0 0 0 .024-.518.732.732 0 0 0-.334-.402l-.728-.414a.759.759 0 0 0-.97.199l-1.179 1.445a.34.34 0 0 1-.404.121 13.585 13.585 0 0 0-.705-.26.39.39 0 0 1-.197-.14.375.375 0 0 1-.073-.228l.028-1.835a.725.725 0 0 0-.16-.496.76.76 0 0 0-.458-.27l-.826-.14a.769.769 0 0 0-.52.097.739.739 0 0 0-.327.407l-.613 1.746a.386.386 0 0 1-.15.19.401.401 0 0 1-.236.067h-.704a.404.404 0 0 1-.233-.068.388.388 0 0 1-.149-.19L13.64.524a.74.74 0 0 0-.325-.412.77.77 0 0 0-.524-.098l-.827.14a.758.758 0 0 0-.455.267.725.725 0 0 0-.162.493l.029 1.84a.378.378 0 0 1-.077.23.393.393 0 0 1-.202.14c-.165.063-.523.197-.686.256-.144.05-.302-.005-.428-.148L8.809 1.824a.759.759 0 0 0-.97-.203l-.726.41a.733.733 0 0 0-.338.405.713.713 0 0 0 .026.522l.667 1.713a.381.381 0 0 1-.122.439c-.176.14-.355.281-.534.437a.393.393 0 0 1-.458.045L4.76 4.63a.765.765 0 0 0-.982.14l-.533.626a.715.715 0 0 0 .027.968l1.232 1.38a.377.377 0 0 1 .032.455c-.123.191-.24.392-.348.594a.395.395 0 0 1-.178.166.408.408 0 0 1-.244.032l-1.84-.347a.762.762 0 0 0-.527.066.733.733 0 0 0-.348.392l-.289.766a.714.714 0 0 0 .004.52.737.737 0 0 0 .357.384l1.643.89c.074.04.132.103.167.178a.37.37 0 0 1 .024.24l-.018.089c-.037.196-.072.382-.105.58a.382.382 0 0 1-.106.214.398.398 0 0 1-.215.112l-1.853.292a.757.757 0 0 0-.47.24.724.724 0 0 0-.19.483v.815a.712.712 0 0 0 .188.485c.122.134.29.218.473.237l1.852.292a.381.381 0 0 1 .324.328c.035.223.072.452.123.67a.38.38 0 0 1-.028.236.392.392 0 0 1-.162.176l-1.642.892a.735.735 0 0 0-.357.384.712.712 0 0 0-.004.518l.289.768a.732.732 0 0 0 .348.392.761.761 0 0 0 .527.066L3.773 20a.405.405 0 0 1 .243.033.392.392 0 0 1 .177.165c.108.197.224.396.346.593a.386.386 0 0 1-.032.457L3.281 22.63a.724.724 0 0 0-.036.969l.535.627a.752.752 0 0 0 .98.14l1.612-.944a.396.396 0 0 1 .46.044c.18.152.362.3.532.435a.376.376 0 0 1 .125.437l-.668 1.718a.712.712 0 0 0-.024.517c.057.17.176.313.335.402l.729.412a.758.758 0 0 0 .97-.199l1.193-1.432c.101-.122.26-.176.377-.13.251.102.42.159.717.256.08.025.148.075.197.14a.377.377 0 0 1 .074.228l-.03 1.833c-.01.18.048.356.162.497a.76.76 0 0 0 .457.269l.825.14a.764.764 0 0 0 .521-.096.736.736 0 0 0 .327-.408l.613-1.743a.385.385 0 0 1 .15-.19.4.4 0 0 1 .236-.067h.703a.403.403 0 0 1 .234.069c.07.046.12.112.149.19l.61 1.736c.048.15.143.282.273.376a.768.768 0 0 0 .577.134l.827-.141a.758.758 0 0 0 .455-.267.724.724 0 0 0 .162-.492l-.029-1.841c0-.082.026-.16.075-.227a.39.39 0 0 1 .196-.14c.277-.09.472-.163.642-.228l.044-.016c.223-.076.331.016.394.092l1.208 1.452a.759.759 0 0 0 .97.198l.726-.41a.732.732 0 0 0 .335-.403.712.712 0 0 0-.025-.519l-.666-1.713a.38.38 0 0 1 .122-.439c.175-.14.355-.281.534-.437a.394.394 0 0 1 .46-.044l1.614.943a.764.764 0 0 0 .982-.14l.534-.627a.715.715 0 0 0-.027-.968l-1.23-1.384a.376.376 0 0 1-.033-.454c.123-.19.241-.392.348-.594a.409.409 0 0 1 .423-.198l1.837.35a.761.761 0 0 0 .527-.067.733.733 0 0 0 .348-.392l.285-.765a.714.714 0 0 0-.004-.52.737.737 0 0 0-.356-.384l-1.645-.892a.384.384 0 0 1-.164-.177.372.372 0 0 1-.024-.237l.017-.09c.038-.196.073-.382.106-.58a.383.383 0 0 1 .106-.214.398.398 0 0 1 .215-.112l1.853-.292a.759.759 0 0 0 .47-.24.724.724 0 0 0 .192-.483v-.824ZM9.631 20.688c-.09.153-.216.282-.367.378a1.158 1.158 0 0 1-1.47-.19 9.377 9.377 0 0 1-2.516-6.398 9.38 9.38 0 0 1 2.547-6.386c.12-.132.271-.233.44-.296a1.166 1.166 0 0 1 1.033.11c.151.097.276.227.365.38l3.293 5.655a1.094 1.094 0 0 1 0 1.108l-3.325 5.64ZM15 24.008a9.94 9.94 0 0 1-2.042-.21 1.152 1.152 0 0 1-.476-.227 1.117 1.117 0 0 1-.32-.413 1.09 1.09 0 0 1 .059-1.004l3.317-5.63a1.139 1.139 0 0 1 .988-.559h6.645c.179 0 .355.041.515.12.16.078.298.193.404.334a1.097 1.097 0 0 1 .17.991c-1.262 3.823-4.933 6.599-9.26 6.599Zm.542-11.534-3.282-5.64a1.094 1.094 0 0 1 .267-1.415c.138-.11.302-.187.476-.225A9.894 9.894 0 0 1 15 4.991c4.327 0 7.998 2.776 9.258 6.601a1.087 1.087 0 0 1-.17.992 1.14 1.14 0 0 1-.919.453h-6.635c-.202 0-.4-.052-.574-.15a1.124 1.124 0 0 1-.418-.413Z" fill="#FFB342"/></g><defs><clipPath id="a"><path fill="#fff" d="M0 0h30v29H0z"/></clipPath></defs></svg>