<svg version="1.1" id="Слой_1" xmlns="http://www.w3.org/2000/svg" x="0" y="0" viewBox="0 0 92 27" style="enable-background:new 0 0 92 27" xml:space="preserve"><style>.st0{fill:#ff5722}</style><path class="st0" d="M.8 12.2 10 1c.3-.4.7-.5 1-.5s.7.2 1 .5c.6.7.6 1.8 0 2.6l-6.7 8.1h21.6c.8 0 1.5.8 1.5 1.8s-.7 1.8-1.5 1.8H5.3l6.7 8.1c.6.7.6 1.8 0 2.6-.6.7-1.5.7-2.1 0L.7 14.8c-.5-.8-.5-1.9.1-2.6z"/><path class="st0" d="M5.5 11.3h84.2c1.2 0 2.2 1 2.2 2.2 0 1.2-1 2.2-2.2 2.2H5.5c-1.2 0-2.2-1-2.2-2.2 0-1.2 1-2.2 2.2-2.2z"/></svg>