<svg version="1.1" id="Слой_1" xmlns="http://www.w3.org/2000/svg" x="0" y="0" viewBox="0 0 53.1 27" style="enable-background:new 0 0 53.1 27" xml:space="preserve"><style>.st0{fill:#9a9a9a}</style><path class="st0" d="m52.7 15.1-9.2 11.2c-.3.4-.7.5-1 .5s-.7-.2-1-.5c-.6-.7-.6-1.8 0-2.6l6.7-8.1H26.5c-.8 0-1.5-.8-1.5-1.8s.7-1.8 1.5-1.8h21.6l-6.7-8.1c-.6-.7-.6-1.8 0-2.6.6-.7 1.5-.7 2.1 0l9.2 11.2c.6.8.6 2 0 2.6z"/><path class="st0" d="M1.3 11.6h47.6c.7 0 1.3 1 1.3 2.2 0 1.2-.6 2.2-1.3 2.2H1.3C.6 16 0 15 0 13.8c0-1.2.6-2.2 1.3-2.2z"/></svg>