<svg width="177" height="54" fill="none" xmlns="http://www.w3.org/2000/svg"><path d="M.6 36.568c.936-.035 1.647-.139 2.132-.312.485-.208.867-.624 1.144-1.248.277-.624.416-1.612.416-2.964V12.128c0-1.941.07-3.501.208-4.68l-3.9.156V3.6h26l.312 10.088H23.48c0-2.565-.624-4.333-1.872-5.304-1.213-1.005-2.687-1.473-4.42-1.404l-1.872.052c-.832.035-1.49.156-1.976.364-.485.173-.867.59-1.144 1.248-.243.659-.364 1.63-.364 2.912v9.048h5.356c-.035-.45-.104-1.941-.208-4.472h4.004v12.636h-3.432c0-1.387-.225-2.41-.676-3.068-.416-.693-.988-1.127-1.716-1.3-.693-.173-1.595-.243-2.704-.208h-.624v7.28c0 1.941-.07 3.501-.208 4.68 1.11-.104 2.652-.156 4.628-.156V40H.6v-3.432Zm28.477.052c1.318 0 2.15-.364 2.496-1.092.382-.728.572-1.907.572-3.536v-8.736c0-1.56.07-3.033.208-4.42l-3.64.156V15.04c2.184 0 3.952-.156 5.304-.468 1.352-.312 2.254-.676 2.704-1.092h2.548c.07.52.122 1.196.156 2.028.035.832.052 1.647.052 2.444h.104c2.358-3.19 4.854-4.784 7.488-4.784 1.318 0 2.392.364 3.224 1.092.867.728 1.3 1.803 1.3 3.224 0 .901-.294 1.733-.884 2.496-.589.763-1.473 1.144-2.652 1.144a4.2 4.2 0 0 1-2.34-.676c-.658-.45-1.04-1.23-1.144-2.34-.97 0-1.976.572-3.016 1.716-1.005 1.11-1.681 2.219-2.028 3.328v8.476c0 1.664-.069 3.19-.208 4.576a36.195 36.195 0 0 1 3.38-.156V40H29.077v-3.38ZM61.394 8.852c-1.179 0-2.15-.399-2.912-1.196-.763-.832-1.144-1.837-1.144-3.016s.398-2.184 1.196-3.016c.797-.867 1.733-1.3 2.808-1.3 1.109 0 2.028.416 2.756 1.248.762.832 1.144 1.855 1.144 3.068s-.364 2.219-1.092 3.016c-.694.797-1.612 1.196-2.756 1.196ZM54.062 36.62c1.317 0 2.149-.364 2.496-1.092.381-.728.572-1.907.572-3.536V23.36c0-1.63.069-3.137.208-4.524l-3.64.156V15.04c2.184 0 3.952-.156 5.304-.468 1.352-.312 2.253-.676 2.704-1.092h2.808v18.148c0 1.664-.07 3.19-.208 4.576a36.195 36.195 0 0 1 3.38-.156V40H54.062v-3.38Zm28.971 4.212c-1.49 0-2.946-.19-4.368-.572-1.42-.381-2.53-.867-3.328-1.456h-.052l.156 1.56H71.49l-.208-8.944h3.38c.174 1.595 1.006 2.947 2.496 4.056 1.526 1.075 3.38 1.612 5.564 1.612.971 0 1.803-.225 2.496-.676.728-.45 1.092-1.092 1.092-1.924 0-.624-.225-1.144-.676-1.56a5.863 5.863 0 0 0-1.612-1.04c-.624-.277-1.872-.78-3.744-1.508-2.218-.867-3.882-1.577-4.992-2.132-1.109-.555-2.114-1.37-3.016-2.444-.866-1.11-1.3-2.53-1.3-4.264a8.12 8.12 0 0 1 1.04-4.004c.728-1.283 1.82-2.323 3.276-3.12 1.491-.832 3.311-1.248 5.46-1.248 1.006 0 2.098.156 3.276.468 1.18.312 2.167.745 2.964 1.3h.052l-.052-1.508h3.952v9.204h-3.38c-.312-1.803-1.109-3.224-2.392-4.264-1.282-1.04-2.86-1.56-4.732-1.56-.97 0-1.785.225-2.444.676-.658.45-.988 1.144-.988 2.08 0 .97.382 1.699 1.144 2.184.763.45 2.046.97 3.848 1.56.208.035.66.173 1.352.416 2.947 1.04 5.2 2.253 6.76 3.64 1.595 1.387 2.392 3.207 2.392 5.46 0 1.733-.45 3.207-1.352 4.42-.866 1.179-2.028 2.08-3.484 2.704-1.42.59-2.964.884-4.628.884Zm12.759 9.048c1.317 0 2.166-.364 2.548-1.092.381-.728.572-1.907.572-3.536V23.256c0-1.56.069-3.033.208-4.42l-3.692.156V15.04c2.184 0 3.952-.156 5.304-.468 1.352-.312 2.253-.676 2.704-1.092h2.548c.069.59.156 1.421.26 2.496h.052c2.149-1.872 4.472-2.808 6.968-2.808 2.08 0 3.9.537 5.46 1.612 1.594 1.075 2.825 2.617 3.692 4.628.901 1.976 1.352 4.281 1.352 6.916 0 2.773-.538 5.27-1.612 7.488-1.075 2.184-2.6 3.9-4.576 5.148-1.942 1.248-4.178 1.872-6.708 1.872-1.352 0-2.895-.312-4.628-.936v4.992c0 1.49-.052 3.016-.156 4.576a34.54 34.54 0 0 1 3.328-.156v3.952H95.792v-3.38Zm14.04-12.948c4.194 0 6.292-3.276 6.292-9.828 0-2.565-.468-4.75-1.404-6.552-.902-1.803-2.271-2.704-4.108-2.704-.867 0-1.699.208-2.496.624a5.408 5.408 0 0 0-1.872 1.664v15.86c.346.243.849.468 1.508.676.693.173 1.386.26 2.08.26Zm30.034 3.9c-2.531 0-4.767-.555-6.708-1.664-1.941-1.144-3.449-2.756-4.524-4.836-1.075-2.08-1.612-4.507-1.612-7.28 0-2.427.537-4.697 1.612-6.812 1.109-2.15 2.652-3.865 4.628-5.148 1.976-1.283 4.229-1.924 6.76-1.924 3.363 0 6.153.988 8.372 2.964 2.253 1.976 3.363 5.27 3.328 9.88l-17.056.312c0 3.05.572 5.46 1.716 7.228 1.179 1.768 3.051 2.652 5.616 2.652 1.213 0 2.513-.312 3.9-.936 1.387-.624 2.635-1.612 3.744-2.964l2.34 2.184c-2.947 4.23-6.985 6.344-12.116 6.344Zm4.68-18.148c-.104-3.917-1.525-5.876-4.264-5.876-1.491 0-2.687.537-3.588 1.612-.867 1.04-1.439 2.461-1.716 4.264h9.568Zm22.937 18.148a16.78 16.78 0 0 1-4.368-.572c-1.422-.381-2.531-.867-3.328-1.456h-.052l.156 1.56h-3.952l-.208-8.944h3.38c.173 1.595 1.005 2.947 2.496 4.056 1.525 1.075 3.38 1.612 5.564 1.612.97 0 1.802-.225 2.496-.676.728-.45 1.092-1.092 1.092-1.924 0-.624-.226-1.144-.676-1.56a5.867 5.867 0 0 0-1.612-1.04c-.624-.277-1.872-.78-3.744-1.508-2.219-.867-3.883-1.577-4.992-2.132-1.11-.555-2.115-1.37-3.016-2.444-.867-1.11-1.3-2.53-1.3-4.264a8.11 8.11 0 0 1 1.04-4.004c.728-1.283 1.82-2.323 3.276-3.12 1.49-.832 3.31-1.248 5.46-1.248 1.005 0 2.097.156 3.276.468 1.178.312 2.166.745 2.964 1.3h.052l-.052-1.508h3.952v9.204h-3.38c-.312-1.803-1.11-3.224-2.392-4.264-1.283-1.04-2.86-1.56-4.732-1.56-.971 0-1.786.225-2.444.676-.659.45-.988 1.144-.988 2.08 0 .97.381 1.699 1.144 2.184.762.45 2.045.97 3.848 1.56.208.035.658.173 1.352.416 2.946 1.04 5.2 2.253 6.76 3.64 1.594 1.387 2.392 3.207 2.392 5.46 0 1.733-.451 3.207-1.352 4.42-.867 1.179-2.028 2.08-3.484 2.704-1.422.59-2.964.884-4.628.884Z" fill="#fff"/></svg>