<svg width="0" height="0" class="hidden">
  <symbol xmlns="http://www.w3.org/2000/svg" viewBox="0 0 384 512" id="bolt-lightning-solid">
    <path d="M381.2 172.8C377.1 164.9 368.9 160 360 160h-156.6l50.84-127.1c2.969-7.375 2.062-15.78-2.406-22.38S239.1 0 232 0h-176C43.97 0 33.81 8.906 32.22 20.84l-32 240C-.7179 267.7 1.376 274.6 5.938 279.8C10.5 285 17.09 288 24 288h146.3l-41.78 194.1c-2.406 11.22 3.469 22.56 14 27.09C145.6 511.4 148.8 512 152 512c7.719 0 15.22-3.75 19.81-10.44l208-304C384.8 190.2 385.4 180.7 381.2 172.8z"></path>
  </symbol>
  <symbol xmlns="http://www.w3.org/2000/svg" viewBox="0 0 576 512" id="building-lock-solid">
    <path d="M336 0C362.5 0 384 21.49 384 48V193.6C364.2 213.8 352 241.5 352 272V296.6C332.9 307.6 320 328.3 320 352V480C320 491.7 323.1 502.6 328.6 512H240V432C240 405.5 218.5 384 192 384C165.5 384 144 405.5 144 432V512H48C21.49 512 0 490.5 0 464V48C0 21.49 21.49 0 48 0H336zM64 272C64 280.8 71.16 288 80 288H112C120.8 288 128 280.8 128 272V240C128 231.2 120.8 224 112 224H80C71.16 224 64 231.2 64 240V272zM176 224C167.2 224 160 231.2 160 240V272C160 280.8 167.2 288 176 288H208C216.8 288 224 280.8 224 272V240C224 231.2 216.8 224 208 224H176zM256 272C256 280.8 263.2 288 272 288H304C312.8 288 320 280.8 320 272V240C320 231.2 312.8 224 304 224H272C263.2 224 256 231.2 256 240V272zM80 96C71.16 96 64 103.2 64 112V144C64 152.8 71.16 160 80 160H112C120.8 160 128 152.8 128 144V112C128 103.2 120.8 96 112 96H80zM160 144C160 152.8 167.2 160 176 160H208C216.8 160 224 152.8 224 144V112C224 103.2 216.8 96 208 96H176C167.2 96 160 103.2 160 112V144zM272 96C263.2 96 256 103.2 256 112V144C256 152.8 263.2 160 272 160H304C312.8 160 320 152.8 320 144V112C320 103.2 312.8 96 304 96H272zM464 192C508.2 192 544 227.8 544 272V320C561.7 320 576 334.3 576 352V480C576 497.7 561.7 512 544 512H384C366.3 512 352 497.7 352 480V352C352 334.3 366.3 320 384 320V272C384 227.8 419.8 192 464 192zM464 240C446.3 240 432 254.3 432 272V320H496V272C496 254.3 481.7 240 464 240z"></path>
  </symbol>
  <symbol xmlns="http://www.w3.org/2000/svg" viewBox="0 0 640 512" id="city-solid">
    <path d="M480 192H592C618.5 192 640 213.5 640 240V464C640 490.5 618.5 512 592 512H48C21.49 512 0 490.5 0 464V144C0 117.5 21.49 96 48 96H64V24C64 10.75 74.75 0 88 0C101.3 0 112 10.75 112 24V96H176V24C176 10.75 186.7 0 200 0C213.3 0 224 10.75 224 24V96H288V48C288 21.49 309.5 0 336 0H432C458.5 0 480 21.49 480 48V192zM576 368C576 359.2 568.8 352 560 352H528C519.2 352 512 359.2 512 368V400C512 408.8 519.2 416 528 416H560C568.8 416 576 408.8 576 400V368zM240 416C248.8 416 256 408.8 256 400V368C256 359.2 248.8 352 240 352H208C199.2 352 192 359.2 192 368V400C192 408.8 199.2 416 208 416H240zM128 368C128 359.2 120.8 352 112 352H80C71.16 352 64 359.2 64 368V400C64 408.8 71.16 416 80 416H112C120.8 416 128 408.8 128 400V368zM528 256C519.2 256 512 263.2 512 272V304C512 312.8 519.2 320 528 320H560C568.8 320 576 312.8 576 304V272C576 263.2 568.8 256 560 256H528zM256 176C256 167.2 248.8 160 240 160H208C199.2 160 192 167.2 192 176V208C192 216.8 199.2 224 208 224H240C248.8 224 256 216.8 256 208V176zM80 160C71.16 160 64 167.2 64 176V208C64 216.8 71.16 224 80 224H112C120.8 224 128 216.8 128 208V176C128 167.2 120.8 160 112 160H80zM256 272C256 263.2 248.8 256 240 256H208C199.2 256 192 263.2 192 272V304C192 312.8 199.2 320 208 320H240C248.8 320 256 312.8 256 304V272zM112 320C120.8 320 128 312.8 128 304V272C128 263.2 120.8 256 112 256H80C71.16 256 64 263.2 64 272V304C64 312.8 71.16 320 80 320H112zM416 272C416 263.2 408.8 256 400 256H368C359.2 256 352 263.2 352 272V304C352 312.8 359.2 320 368 320H400C408.8 320 416 312.8 416 304V272zM368 64C359.2 64 352 71.16 352 80V112C352 120.8 359.2 128 368 128H400C408.8 128 416 120.8 416 112V80C416 71.16 408.8 64 400 64H368zM416 176C416 167.2 408.8 160 400 160H368C359.2 160 352 167.2 352 176V208C352 216.8 359.2 224 368 224H400C408.8 224 416 216.8 416 208V176z"></path>
  </symbol>
  <symbol xmlns="http://www.w3.org/2000/svg" viewBox="0 0 576 512" id="house-solid">
    <path d="M575.8 255.5C575.8 273.5 560.8 287.6 543.8 287.6H511.8L512.5 447.7C512.5 450.5 512.3 453.1 512 455.8V472C512 494.1 494.1 512 472 512H456C454.9 512 453.8 511.1 452.7 511.9C451.3 511.1 449.9 512 448.5 512H392C369.9 512 352 494.1 352 472V384C352 366.3 337.7 352 320 352H256C238.3 352 224 366.3 224 384V472C224 494.1 206.1 512 184 512H128.1C126.6 512 125.1 511.9 123.6 511.8C122.4 511.9 121.2 512 120 512H104C81.91 512 64 494.1 64 472V360C64 359.1 64.03 358.1 64.09 357.2V287.6H32.05C14.02 287.6 0 273.5 0 255.5C0 246.5 3.004 238.5 10.01 231.5L266.4 8.016C273.4 1.002 281.4 0 288.4 0C295.4 0 303.4 2.004 309.5 7.014L564.8 231.5C572.8 238.5 576.9 246.5 575.8 255.5L575.8 255.5z"></path>
  </symbol>
  <symbol xmlns="http://www.w3.org/2000/svg" viewBox="0 0 512 512" id="screwdriver-wrench-solid">
    <path d="M331.8 224.1c28.29 0 54.88 10.99 74.86 30.97l19.59 19.59c40.01-17.74 71.25-53.3 81.62-96.65c5.725-23.92 5.34-47.08 .2148-68.4c-2.613-10.88-16.43-14.51-24.34-6.604l-68.9 68.9h-75.6V97.2l68.9-68.9c7.912-7.912 4.275-21.73-6.604-24.34c-21.32-5.125-44.48-5.51-68.4 .2148c-55.3 13.23-98.39 60.22-107.2 116.4C224.5 128.9 224.2 137 224.3 145l82.78 82.86C315.2 225.1 323.5 224.1 331.8 224.1zM384 278.6c-23.16-23.16-57.57-27.57-85.39-13.9L191.1 158L191.1 95.99l-127.1-95.99L0 63.1l96 127.1l62.04 .0077l106.7 106.6c-13.67 27.82-9.251 62.23 13.91 85.39l117 117.1c14.62 14.5 38.21 14.5 52.71-.0016l52.75-52.75c14.5-14.5 14.5-38.08-.0016-52.71L384 278.6zM227.9 307L168.7 247.9l-148.9 148.9c-26.37 26.37-26.37 69.08 0 95.45C32.96 505.4 50.21 512 67.5 512s34.54-6.592 47.72-19.78l119.1-119.1C225.5 352.3 222.6 329.4 227.9 307zM64 472c-13.25 0-24-10.75-24-24c0-13.26 10.75-24 24-24S88 434.7 88 448C88 461.3 77.25 472 64 472z"></path>
  </symbol>
  <symbol xmlns="http://www.w3.org/2000/svg" xmlns:xlink="http://www.w3.org/1999/xlink" version="1.1" xml:space="preserve" viewBox="0 0 256 256" id="air-conditioner-1838">
    <defs></defs>
    <g transform="translate(1.4065934065934016 1.4065934065934016) scale(2.81 2.81)">
      <path d="M 83.217 16.065 H 6.783 C 3.043 16.065 0 19.108 0 22.848 V 53.22 c 0 3.74 3.043 6.783 6.783 6.783 h 11.531 h 53.371 h 11.531 c 3.74 0 6.783 -3.043 6.783 -6.783 V 22.848 C 90 19.108 86.957 16.065 83.217 16.065 z M 19.314 58.003 v -2.93 H 66.14 c 0.553 0 1 -0.447 1 -1 s -0.447 -1 -1 -1 H 19.314 v -1.314 c 0 -0.89 0.725 -1.614 1.615 -1.614 H 69.07 c 0.891 0 1.615 0.725 1.615 1.614 v 6.244 H 19.314 z M 88 53.22 c 0 2.638 -2.146 4.783 -4.783 4.783 H 72.686 v -6.244 c 0 -1.993 -1.622 -3.614 -3.615 -3.614 H 20.929 c -1.993 0 -3.615 1.621 -3.615 3.614 v 6.244 H 6.783 C 4.146 58.003 2 55.857 2 53.22 V 22.848 c 0 -2.638 2.146 -4.783 4.783 -4.783 h 76.434 c 2.638 0 4.783 2.146 4.783 4.783 V 53.22 z" transform=" matrix(1 0 0 1 0 0) " stroke-linecap="round"></path>
      <path d="M 71.686 24.802 H 45 c -0.552 0 -1 -0.448 -1 -1 s 0.448 -1 1 -1 h 26.686 c 0.553 0 1 0.448 1 1 S 72.238 24.802 71.686 24.802 z" transform=" matrix(1 0 0 1 0 0) " stroke-linecap="round"></path>
      <path d="M 83.802 24.802 h -5.375 c -0.553 0 -1 -0.448 -1 -1 s 0.447 -1 1 -1 h 5.375 c 0.553 0 1 0.448 1 1 S 84.354 24.802 83.802 24.802 z" transform=" matrix(1 0 0 1 0 0) " stroke-linecap="round"></path>
      <path d="M 44.843 73.936 c -0.552 0 -1 -0.447 -1 -1 v -9.11 c 0 -0.553 0.448 -1 1 -1 s 1 0.447 1 1 v 9.11 C 45.843 73.488 45.396 73.936 44.843 73.936 z" transform=" matrix(1 0 0 1 0 0) " stroke-linecap="round"></path>
      <path d="M 54.844 73.936 c -0.553 0 -1 -0.447 -1 -1 v -9.11 c 0 -0.553 0.447 -1 1 -1 s 1 0.447 1 1 v 9.11 C 55.844 73.488 55.396 73.936 54.844 73.936 z" transform=" matrix(1 0 0 1 0 0) " stroke-linecap="round"></path>
      <path d="M 34.843 73.936 c -0.552 0 -1 -0.447 -1 -1 v -9.11 c 0 -0.553 0.448 -1 1 -1 s 1 0.447 1 1 v 9.11 C 35.843 73.488 35.396 73.936 34.843 73.936 z" transform=" matrix(1 0 0 1 0 0) " stroke-linecap="round"></path>
      <path d="M 69.155 73.936 c -0.135 0 -0.272 -0.027 -0.404 -0.086 c -3.168 -1.403 -4.819 -4.771 -4.907 -10.008 c -0.009 -0.552 0.431 -1.007 0.983 -1.017 c 0.006 0 0.012 0 0.017 0 c 0.545 0 0.99 0.437 1 0.983 c 0.073 4.39 1.324 7.152 3.718 8.213 c 0.505 0.224 0.732 0.814 0.509 1.319 C 69.905 73.714 69.539 73.936 69.155 73.936 z" transform=" matrix(1 0 0 1 0 0) " stroke-linecap="round"></path>
      <path d="M 20.844 73.936 c -0.384 0 -0.75 -0.222 -0.915 -0.595 c -0.224 -0.505 0.005 -1.096 0.51 -1.319 c 2.393 -1.06 3.644 -3.823 3.718 -8.213 c 0.01 -0.553 0.494 -0.958 1.017 -0.983 c 0.552 0.01 0.992 0.465 0.983 1.017 c -0.089 5.238 -1.74 8.605 -4.909 10.008 C 21.117 73.908 20.979 73.936 20.844 73.936 z" transform=" matrix(1 0 0 1 0 0) " stroke-linecap="round"></path>
    </g>
  </symbol>
</svg>