<svg width="0" height="0" class="hidden">
  <symbol xmlns="http://www.w3.org/2000/svg" viewBox="0 0 384 512" id="angle-down-solid">
    <path d="M192 384c-8.188 0-16.38-3.125-22.62-9.375l-160-160c-12.5-12.5-12.5-32.75 0-45.25s32.75-12.5 45.25 0L192 306.8l137.4-137.4c12.5-12.5 32.75-12.5 45.25 0s12.5 32.75 0 45.25l-160 160C208.4 380.9 200.2 384 192 384z"></path>
  </symbol>
  <symbol xmlns="http://www.w3.org/2000/svg" viewBox="0 0 256 512" id="angle-left-solid">
    <path d="M192 448c-8.188 0-16.38-3.125-22.62-9.375l-160-160c-12.5-12.5-12.5-32.75 0-45.25l160-160c12.5-12.5 32.75-12.5 45.25 0s12.5 32.75 0 45.25L77.25 256l137.4 137.4c12.5 12.5 12.5 32.75 0 45.25C208.4 444.9 200.2 448 192 448z"></path>
  </symbol>
  <symbol xmlns="http://www.w3.org/2000/svg" viewBox="0 0 256 512" id="angle-right-solid">
    <path d="M64 448c-8.188 0-16.38-3.125-22.62-9.375c-12.5-12.5-12.5-32.75 0-45.25L178.8 256L41.38 118.6c-12.5-12.5-12.5-32.75 0-45.25s32.75-12.5 45.25 0l160 160c12.5 12.5 12.5 32.75 0 45.25l-160 160C80.38 444.9 72.19 448 64 448z"></path>
  </symbol>
  <symbol xmlns="http://www.w3.org/2000/svg" viewBox="0 0 384 512" id="angle-up-solid">
    <path d="M352 352c-8.188 0-16.38-3.125-22.62-9.375L192 205.3l-137.4 137.4c-12.5 12.5-32.75 12.5-45.25 0s-12.5-32.75 0-45.25l160-160c12.5-12.5 32.75-12.5 45.25 0l160 160c12.5 12.5 12.5 32.75 0 45.25C368.4 348.9 360.2 352 352 352z"></path>
  </symbol>
  <symbol xmlns="http://www.w3.org/2000/svg" viewBox="0 0 1024 1024" id="clock">
    <path d="M512 896a384 384 0 100-768 384 384 0 000 768zm0 64a448 448 0 110-896 448 448 0 010 896z"></path>
    <path d="M480 256a32 32 0 0132 32v256a32 32 0 01-64 0V288a32 32 0 0132-32z"></path>
    <path d="M480 512h256q32 0 32 32t-32 32H480q-32 0-32-32t32-32z"></path>
  </symbol>
  <symbol xmlns="http://www.w3.org/2000/svg" viewBox="0 0 32 32" id="comments">
    <path d="M 2 5 L 2 21 L 6 21 L 6 26.09375 L 7.625 24.78125 L 12.34375 21 L 22 21 L 22 5 Z M 4 7 L 20 7 L 20 19 L 11.65625 19 L 11.375 19.21875 L 8 21.90625 L 8 19 L 4 19 Z M 24 9 L 24 11 L 28 11 L 28 23 L 24 23 L 24 25.90625 L 20.34375 23 L 12.84375 23 L 10.34375 25 L 19.65625 25 L 26 30.09375 L 26 25 L 30 25 L 30 9 Z"></path>
  </symbol>
  <symbol version="1.1" id="facebook" xmlns="http://www.w3.org/2000/svg" xmlns:xlink="http://www.w3.org/1999/xlink" x="0px" y="0px" xml:space="preserve" viewBox="0 0 310 310">
    <g id="XMLID_834_">
      <path id="XMLID_835_" d="M81.703,165.106h33.981V305c0,2.762,2.238,5,5,5h57.616c2.762,0,5-2.238,5-5V165.765h39.064
		c2.54,0,4.677-1.906,4.967-4.429l5.933-51.502c0.163-1.417-0.286-2.836-1.234-3.899c-0.949-1.064-2.307-1.673-3.732-1.673h-44.996
		V71.978c0-9.732,5.24-14.667,15.576-14.667c1.473,0,29.42,0,29.42,0c2.762,0,5-2.239,5-5V5.037c0-2.762-2.238-5-5-5h-40.545
		C187.467,0.023,186.832,0,185.896,0c-7.035,0-31.488,1.381-50.804,19.151c-21.402,19.692-18.427,43.27-17.716,47.358v37.752H81.703
		c-2.762,0-5,2.238-5,5v50.844C76.703,162.867,78.941,165.106,81.703,165.106z"></path>
    </g>
    
  </symbol>
  <symbol version="1.1" id="heart" xmlns="http://www.w3.org/2000/svg" xmlns:xlink="http://www.w3.org/1999/xlink" x="0px" y="0px" xml:space="preserve" viewBox="0 0 490.4 490.4">
    <g>
      <g>
        <path d="M222.5,453.7c6.1,6.1,14.3,9.5,22.9,9.5c8.5,0,16.9-3.5,22.9-9.5L448,274c27.3-27.3,42.3-63.6,42.4-102.1
			c0-38.6-15-74.9-42.3-102.2S384.6,27.4,346,27.4c-37.9,0-73.6,14.5-100.7,40.9c-27.2-26.5-63-41.1-101-41.1
			c-38.5,0-74.7,15-102,42.2C15,96.7,0,133,0,171.6c0,38.5,15.1,74.8,42.4,102.1L222.5,453.7z M59.7,86.8
			c22.6-22.6,52.7-35.1,84.7-35.1s62.2,12.5,84.9,35.2l7.4,7.4c2.3,2.3,5.4,3.6,8.7,3.6l0,0c3.2,0,6.4-1.3,8.7-3.6l7.2-7.2
			c22.7-22.7,52.8-35.2,84.9-35.2c32,0,62.1,12.5,84.7,35.1c22.7,22.7,35.1,52.8,35.1,84.8s-12.5,62.1-35.2,84.8L251,436.4
			c-2.9,2.9-8.2,2.9-11.2,0l-180-180c-22.7-22.7-35.2-52.8-35.2-84.8C24.6,139.6,37.1,109.5,59.7,86.8z"></path>
      </g>
    </g>
    
  </symbol>
  <symbol xmlns="http://www.w3.org/2000/svg" viewBox="0 0 1024 1024" id="instagram-dark">
    <path d="M512 378.7c-73.4 0-133.3 59.9-133.3 133.3S438.6 645.3 512 645.3 645.3 585.4 645.3 512 585.4 378.7 512 378.7zM911.8 512c0-55.2.5-109.9-2.6-165-3.1-64-17.7-120.8-64.5-167.6-46.9-46.9-103.6-61.4-167.6-64.5-55.2-3.1-109.9-2.6-165-2.6-55.2 0-109.9-.5-165 2.6-64 3.1-120.8 17.7-167.6 64.5C132.6 226.3 118.1 283 115 347c-3.1 55.2-2.6 109.9-2.6 165s-.5 109.9 2.6 165c3.1 64 17.7 120.8 64.5 167.6 46.9 46.9 103.6 61.4 167.6 64.5 55.2 3.1 109.9 2.6 165 2.6 55.2 0 109.9.5 165-2.6 64-3.1 120.8-17.7 167.6-64.5 46.9-46.9 61.4-103.6 64.5-167.6 3.2-55.1 2.6-109.8 2.6-165zM512 717.1c-113.5 0-205.1-91.6-205.1-205.1S398.5 306.9 512 306.9 717.1 398.5 717.1 512 625.5 717.1 512 717.1zm213.5-370.7c-26.5 0-47.9-21.4-47.9-47.9s21.4-47.9 47.9-47.9 47.9 21.4 47.9 47.9a47.84 47.84 0 0 1-47.9 47.9z"></path>
  </symbol>
  <symbol xmlns="http://www.w3.org/2000/svg" xmlns:xlink="http://www.w3.org/1999/xlink" aria-hidden="true" role="img" preserveAspectRatio="xMidYMid meet" viewBox="0 0 100 100" id="location">
    <path d="M68.913 48.908l-.048.126c.015-.038.027-.077.042-.115l.006-.011z" ></path>
    <path d="M50.002 0C33.524 0 20 13.48 20 29.922c0 6.372 2.04 12.31 5.48 17.174l-.123-.192l19.206 33.198l.097.127c.774 1.01 1.54 1.824 2.467 2.437c.927.613 2.114 1 3.28.883c2.33-.234 3.684-1.844 4.935-3.54l.078-.105L76.594 43.87l.017-.03c.507-.915.874-1.838 1.188-2.732A29.578 29.578 0 0 0 80 29.922C80 13.48 66.48 0 50.002 0zm0 5C63.756 5 75 16.218 75 29.922a24.55 24.55 0 0 1-1.84 9.332l-.025.062l-.022.065c-.263.757-.549 1.444-.879 2.04L51.275 77.087c-.927 1.221-1.575 1.51-1.367 1.488c.107-.01.206.074-.023-.078c-.219-.145-.666-.57-1.196-1.246L29.63 44.3l-.067-.093C26.69 40.147 25 35.23 25 29.922C25 16.219 36.248 5 50.002 5zm0 7.85c-9.462 0-17.115 7.626-17.115 17.072c0 9.446 7.654 17.072 17.115 17.072c9.461 0 17.111-7.627 17.111-17.072c0-9.446-7.65-17.072-17.111-17.072zm0 5c6.817 0 12.111 5.285 12.111 12.072c0 6.787-5.293 12.072-12.111 12.072c-6.818 0-12.115-5.286-12.115-12.072c0-6.787 5.298-12.072 12.115-12.072z"></path>
    <path d="M34.006 69.057C19.88 71.053 10 75.828 10 82.857C10 92.325 26.508 100 50 100s40-7.675 40-17.143c0-7.029-9.879-11.804-24.004-13.8l-1.957 3.332C74.685 73.866 82 76.97 82 80.572c0 5.05-14.327 9.143-32 9.143c-17.673 0-32-4.093-32-9.143c-.001-3.59 7.266-6.691 17.945-8.174c-.645-1.114-1.294-2.226-1.94-3.341z"></path>
  </symbol>
  <symbol version="1.1" id="phone" xmlns="http://www.w3.org/2000/svg" xmlns:xlink="http://www.w3.org/1999/xlink" x="0px" y="0px" xml:space="preserve" viewBox="0 0 201.629 201.629">
    <path d="M139.321,201.629c-1.457,0-2.925-0.14-4.387-0.426c-0.04-0.006-0.08-0.012-0.12-0.019
	c-2.116-0.364-52.265-9.341-89.971-47.047C14.447,123.742,4.194,84.726,1.17,69.123c-0.564-1.856-0.888-3.791-0.962-5.757
	c-0.023-0.219-0.029-0.438-0.018-0.656c-0.054-6.129,2.288-11.87,6.615-16.197l12.818-12.818c0.75-0.75,1.768-1.172,2.828-1.172
	s2.078,0.422,2.828,1.172l41.479,41.48c1.563,1.562,1.563,4.095,0,5.656L53.942,93.649c-0.327,0.327-0.656,0.637-0.992,0.935
	c-5.987,5.316-7.148,14.626-2.694,21.65c4.279,6.747,9.12,12.838,14.387,18.105c6.239,6.238,13.642,11.89,22.001,16.795
	c6.837,4.012,15.627,2.726,21.379-3.127l0.139-0.14l12.818-12.817c1.563-1.563,4.094-1.563,5.656,0l41.479,41.479
	c1.563,1.562,1.563,4.095,0,5.656l-12.817,12.818C151.006,199.296,145.262,201.629,139.321,201.629z M135.976,193.265
	c0.11,0.014,0.22,0.031,0.329,0.054c4.857,1.008,9.843-0.478,13.337-3.971l9.988-9.989l-35.822-35.822l-10.104,10.104
	c-8.302,8.448-21.105,10.265-31.108,4.396c-8.946-5.25-16.889-11.319-23.608-18.039c-5.682-5.682-10.893-12.234-15.486-19.478
	c-6.531-10.301-4.75-24.024,4.145-31.923c0.226-0.198,0.438-0.4,0.646-0.608l9.984-9.984L22.452,42.18l-9.99,9.989
	c-2.832,2.833-4.348,6.609-4.27,10.637c0.003,0.044,0.005,0.087,0.006,0.131c0.04,1.376,0.266,2.725,0.672,4.008
	c0.046,0.147,0.084,0.298,0.113,0.45c2.831,14.729,12.544,52.113,41.517,81.087C85.282,183.264,132.552,192.626,135.976,193.265z
	 M197.444,110.944c-2.209,0-4-1.791-4-4C193.444,52.387,149.058,8,94.5,8c-2.209,0-4-1.791-4-4s1.791-4,4-4
	c58.97,0,106.944,47.975,106.944,106.944C201.444,109.153,199.653,110.944,197.444,110.944z M172.624,110.944c-2.209,0-4-1.791-4-4
	c0-41.226-33.539-74.765-74.764-74.765c-2.209,0-4-1.791-4-4s1.791-4,4-4c45.636,0,82.764,37.128,82.764,82.765
	C176.624,109.153,174.833,110.944,172.624,110.944z M147.866,110.944c-2.209,0-4-1.791-4-4c0-27.573-22.433-50.006-50.006-50.006
	c-2.209,0-4-1.791-4-4s1.791-4,4-4c31.984,0,58.006,26.021,58.006,58.006C151.866,109.153,150.075,110.944,147.866,110.944z"></path>
   
  </symbol>
  <symbol fill="none" xmlns="http://www.w3.org/2000/svg" viewBox="0 0 24 24" id="instagram-regular">
    <path d="M15.9999 7.00005C15.9999 6.44776 16.4477 6.00005 16.9999 6.00005C17.5522 6.00005 17.9999 6.44776 17.9999 7.00005C17.9999 7.55233 17.5522 8.00005 16.9999 8.00005C16.4477 8.00005 15.9999 7.55233 15.9999 7.00005Z" fill="black"></path>
    <path fill-rule="evenodd" clip-rule="evenodd" d="M11.9999 7.25005C9.37659 7.25005 7.24994 9.37669 7.24994 12C7.24994 14.6234 9.37659 16.75 11.9999 16.75C14.6233 16.75 16.7499 14.6234 16.7499 12C16.7499 9.37669 14.6233 7.25005 11.9999 7.25005ZM8.74994 12C8.74994 10.2051 10.205 8.75005 11.9999 8.75005C13.7949 8.75005 15.2499 10.2051 15.2499 12C15.2499 13.795 13.7949 15.25 11.9999 15.25C10.205 15.25 8.74994 13.795 8.74994 12Z" fill="black"></path>
    <path fill-rule="evenodd" clip-rule="evenodd" d="M17.2582 2.83306C13.7916 2.44562 10.2083 2.44562 6.74171 2.83306C4.72965 3.05794 3.10532 4.64295 2.86876 6.66548C2.45423 10.2098 2.45423 13.7903 2.86876 17.3346C3.10532 19.3571 4.72965 20.9422 6.74171 21.167C10.2083 21.5545 13.7916 21.5545 17.2582 21.167C19.2702 20.9422 20.8946 19.3571 21.1311 17.3346C21.5457 13.7903 21.5457 10.2098 21.1311 6.66548C20.8946 4.64295 19.2703 3.05794 17.2582 2.83306ZM6.90832 4.32378C10.2642 3.94871 13.7357 3.94871 17.0916 4.32378C18.4217 4.47244 19.4872 5.52205 19.6413 6.83973C20.0423 10.2683 20.0423 13.7318 19.6413 17.1604C19.4872 18.478 18.4217 19.5277 17.0916 19.6763C13.7357 20.0514 10.2642 20.0514 6.90832 19.6763C5.57821 19.5277 4.51272 18.478 4.35861 17.1604C3.95761 13.7318 3.95761 10.2683 4.35861 6.83973C4.51272 5.52205 5.57821 4.47244 6.90832 4.32378Z" fill="black"></path>
  </symbol>
  <symbol version="1.1" id="linkedin" xmlns="http://www.w3.org/2000/svg" xmlns:xlink="http://www.w3.org/1999/xlink" x="0px" y="0px" xml:space="preserve" viewBox="0 0 310 310">
    <g id="XMLID_801_">
      <path id="XMLID_802_" d="M72.16,99.73H9.927c-2.762,0-5,2.239-5,5v199.928c0,2.762,2.238,5,5,5H72.16c2.762,0,5-2.238,5-5V104.73
		C77.16,101.969,74.922,99.73,72.16,99.73z"></path>
      <path id="XMLID_803_" d="M41.066,0.341C18.422,0.341,0,18.743,0,41.362C0,63.991,18.422,82.4,41.066,82.4
		c22.626,0,41.033-18.41,41.033-41.038C82.1,18.743,63.692,0.341,41.066,0.341z"></path>
      <path id="XMLID_804_" d="M230.454,94.761c-24.995,0-43.472,10.745-54.679,22.954V104.73c0-2.761-2.238-5-5-5h-59.599
		c-2.762,0-5,2.239-5,5v199.928c0,2.762,2.238,5,5,5h62.097c2.762,0,5-2.238,5-5v-98.918c0-33.333,9.054-46.319,32.29-46.319
		c25.306,0,27.317,20.818,27.317,48.034v97.204c0,2.762,2.238,5,5,5H305c2.762,0,5-2.238,5-5V194.995
		C310,145.43,300.549,94.761,230.454,94.761z"></path>
    </g>    
  </symbol>
  <symbol xmlns="http://www.w3.org/2000/svg" viewBox="0 0 32 32" id="twitter">
    <path d="M31.937 6.093c-1.177 0.516-2.437 0.871-3.765 1.032 1.355-0.813 2.391-2.099 2.885-3.631-1.271 0.74-2.677 1.276-4.172 1.579-1.192-1.276-2.896-2.079-4.787-2.079-3.625 0-6.563 2.937-6.563 6.557 0 0.521 0.063 1.021 0.172 1.495-5.453-0.255-10.287-2.875-13.52-6.833-0.568 0.964-0.891 2.084-0.891 3.303 0 2.281 1.161 4.281 2.916 5.457-1.073-0.031-2.083-0.328-2.968-0.817v0.079c0 3.181 2.26 5.833 5.26 6.437-0.547 0.145-1.131 0.229-1.724 0.229-0.421 0-0.823-0.041-1.224-0.115 0.844 2.604 3.26 4.5 6.14 4.557-2.239 1.755-5.077 2.801-8.135 2.801-0.521 0-1.041-0.025-1.563-0.088 2.917 1.86 6.36 2.948 10.079 2.948 12.067 0 18.661-9.995 18.661-18.651 0-0.276 0-0.557-0.021-0.839 1.287-0.917 2.401-2.079 3.281-3.396z"></path>
  </symbol>
  <symbol version="1.1" id="youtube-dark" xmlns="http://www.w3.org/2000/svg" xmlns:xlink="http://www.w3.org/1999/xlink" x="0px" y="0px" xml:space="preserve" viewBox="0 0 310 310">
    <g id="XMLID_822_">
      <path id="XMLID_823_" d="M297.917,64.645c-11.19-13.302-31.85-18.728-71.306-18.728H83.386c-40.359,0-61.369,5.776-72.517,19.938
		C0,79.663,0,100.008,0,128.166v53.669c0,54.551,12.896,82.248,83.386,82.248h143.226c34.216,0,53.176-4.788,65.442-16.527
		C304.633,235.518,310,215.863,310,181.835v-53.669C310,98.471,309.159,78.006,297.917,64.645z M199.021,162.41l-65.038,33.991
		c-1.454,0.76-3.044,1.137-4.632,1.137c-1.798,0-3.592-0.484-5.181-1.446c-2.992-1.813-4.819-5.056-4.819-8.554v-67.764
		c0-3.492,1.822-6.732,4.808-8.546c2.987-1.814,6.702-1.938,9.801-0.328l65.038,33.772c3.309,1.718,5.387,5.134,5.392,8.861
		C204.394,157.263,202.325,160.684,199.021,162.41z"></path>
    </g>    
  </symbol>
  <symbol version="1.1" id="youtube-regular" xmlns="http://www.w3.org/2000/svg" xmlns:xlink="http://www.w3.org/1999/xlink" x="0px" y="0px" xml:space="preserve" viewBox="0 0 49 49">
      <g>
        <path d="M39.256,6.5H9.744C4.371,6.5,0,10.885,0,16.274v16.451c0,5.39,4.371,9.774,9.744,9.774h29.512
			c5.373,0,9.744-4.385,9.744-9.774V16.274C49,10.885,44.629,6.5,39.256,6.5z M47,32.726c0,4.287-3.474,7.774-7.744,7.774H9.744
			C5.474,40.5,2,37.012,2,32.726V16.274C2,11.988,5.474,8.5,9.744,8.5h29.512c4.27,0,7.744,3.488,7.744,7.774V32.726z"></path>
        <path d="M33.36,24.138l-13.855-8.115c-0.308-0.18-0.691-0.183-1.002-0.005S18,16.527,18,16.886v16.229
			c0,0.358,0.192,0.69,0.502,0.868c0.154,0.088,0.326,0.132,0.498,0.132c0.175,0,0.349-0.046,0.505-0.137l13.855-8.113
			c0.306-0.179,0.495-0.508,0.495-0.863S33.667,24.317,33.36,24.138z M20,31.37V18.63l10.876,6.371L20,31.37z"></path>
      </g>
    </symbol>
</svg>