<svg width="22" height="28" fill="none" xmlns="http://www.w3.org/2000/svg"><g clip-path="url(#a)"><path d="M18 11.543V23.54c0 .342-.055.681-.162.998a2.71 2.71 0 0 1-.46.846 2.153 2.153 0 0 1-.69.565 1.789 1.789 0 0 1-.813.199H3.125c-.564 0-1.104-.275-1.503-.764C1.224 24.894 1 24.232 1 23.54V7.892c0-.692.224-1.355.622-1.844.399-.49.94-.764 1.503-.764h8.897" stroke="#FFB342" stroke-width="2" stroke-linecap="round" stroke-linejoin="round"/><path d="M21.778.727a.913.913 0 0 0-.285-.255.736.736 0 0 0-.69-.02.886.886 0 0 0-.295.238l-.676.826a.604.604 0 0 0-.128.38c0 .142.046.278.128.379l.62.76c.04.05.089.09.142.117a.369.369 0 0 0 .336 0 .444.444 0 0 0 .142-.117l.66-.806c.333-.408.364-1.074.046-1.502Zm-3.314 2.467L8.592 15.287a.645.645 0 0 0-.127.264L8.01 17.22a.32.32 0 0 0-.002.139c.01.046.028.088.056.121a.207.207 0 0 0 .098.069c.038.011.077.01.114-.003l1.359-.56a.483.483 0 0 0 .214-.155l9.855-12.117a.68.68 0 0 0 .142-.424.68.68 0 0 0-.142-.425l-.544-.671a.451.451 0 0 0-.348-.177.451.451 0 0 0-.347.177Z" fill="#FFB342"/></g><defs><clipPath id="a"><path fill="#fff" transform="translate(0 .375)" d="M0 0h22v27H0z"/></clipPath></defs></svg>